<svg version="1.1" xmlns="http://www.w3.org/2000/svg" viewBox="0 0 343.17578125 276.814453125" width="686.3515625" height="553.62890625">
  <!-- svg-source:excalidraw -->
  
  <defs>
    <style class="style-fonts">
      @font-face {
        font-family: "Virgil";
        src: url("http://192.168.1.100:8082/node_modules/@excalidraw/excalidraw/dist//dist/excalidraw-assets/Virgil.woff2");
      }
      @font-face {
        font-family: "Cascadia";
        src: url("http://192.168.1.100:8082/node_modules/@excalidraw/excalidraw/dist//dist/excalidraw-assets/Cascadia.woff2");
      }
      @font-face {
        font-family: "Assistant";
        src: url("http://192.168.1.100:8082/node_modules/@excalidraw/excalidraw/dist//dist/excalidraw-assets/Assistant-Regular.woff2");
      }
    </style>
    
  </defs>
  <rect x="0" y="0" width="343.17578125" height="276.814453125" fill="#ffffff"></rect><g stroke-linecap="round" transform="translate(5 5) rotate(0 95.97265625 86.470703125)"><path d="M32 0 C72.09 -0.59, 111.36 -1, 159.95 0 M32 0 C66.07 0.45, 99.49 -0.49, 159.95 0 M159.95 0 C180.37 -0.99, 192.37 12.02, 191.95 32 M159.95 0 C181.58 0.09, 192.08 9.27, 191.95 32 M191.95 32 C192.62 68.01, 194.38 104.46, 191.95 140.94 M191.95 32 C191.98 60.24, 191.36 86.2, 191.95 140.94 M191.95 140.94 C191.75 163.3, 179.28 173.92, 159.95 172.94 M191.95 140.94 C189.71 161.41, 180.54 173.1, 159.95 172.94 M159.95 172.94 C118.2 173.91, 78.91 172.82, 32 172.94 M159.95 172.94 C125.83 172.77, 91.19 172.56, 32 172.94 M32 172.94 C9.95 174.43, 1.96 162.89, 0 140.94 M32 172.94 C10.25 173.4, 0.26 163.63, 0 140.94 M0 140.94 C1.51 115.87, -0.66 90.65, 0 32 M0 140.94 C-0.33 110.93, 0.37 81.49, 0 32 M0 32 C1.12 10.79, 10.67 1.95, 32 0 M0 32 C1.95 10.98, 12.11 -1.28, 32 0" stroke="#6741d9" stroke-width="2" fill="none"></path></g><g stroke-linecap="round" transform="translate(146.23046875 98.873046875) rotate(0 95.97265625 86.470703125)"><path d="M32 0 C74.2 -0.2, 114.77 -0.35, 159.95 0 M32 0 C78.36 1.07, 124.15 -0.87, 159.95 0 M159.95 0 C181.41 -1.36, 190.46 12.01, 191.95 32 M159.95 0 C181.15 -1.13, 190.64 9.6, 191.95 32 M191.95 32 C190.47 61.18, 190.96 88.97, 191.95 140.94 M191.95 32 C191.38 57.95, 190.62 84.12, 191.95 140.94 M191.95 140.94 C192.27 163.37, 181.11 170.96, 159.95 172.94 M191.95 140.94 C192.65 160.05, 180.64 173.98, 159.95 172.94 M159.95 172.94 C119.71 175.33, 80.27 173.34, 32 172.94 M159.95 172.94 C116.9 172.04, 75.03 172.81, 32 172.94 M32 172.94 C9.91 174.11, -0.44 161.64, 0 140.94 M32 172.94 C11.01 173.81, -0.21 162.16, 0 140.94 M0 140.94 C-1.41 98.93, 0.54 56.4, 0 32 M0 140.94 C0.17 110.98, -1.32 80.98, 0 32 M0 32 C-0.68 11.76, 10.23 -0.9, 32 0 M0 32 C1.63 12, 10.86 -0.75, 32 0" stroke="#6741d9" stroke-width="2" fill="none"></path></g></svg>