<svg version="1.1" xmlns="http://www.w3.org/2000/svg" viewBox="0 0 694.095703125 222.982421875" width="1388.19140625" height="445.96484375">
  <!-- svg-source:excalidraw -->
  
  <defs>
    <style class="style-fonts">
      @font-face {
        font-family: "Virgil";
        src: url("../../../../node_modules/%40excalidraw/excalidraw/dist/dist/excalidraw-assets/Virgil.json");
      }
      @font-face {
        font-family: "Cascadia";
        src: url("../../../../node_modules/%40excalidraw/excalidraw/dist/dist/excalidraw-assets/Cascadia.json");
      }
      @font-face {
        font-family: "Assistant";
        src: url("../../../../node_modules/%40excalidraw/excalidraw/dist/dist/excalidraw-assets/Assistant-Regular.json");
      }
    </style>
    
  </defs>
  <rect x="0" y="0" width="694.095703125" height="222.982421875" fill="#ffffff"></rect><g stroke-linecap="round" transform="translate(5 54.78125) rotate(0 61.501953125 43.251953125)"><path d="M21.63 0 C47.95 1.19, 75.8 1.74, 101.38 0 M21.63 0 C38.57 0.07, 53.72 0.19, 101.38 0 M101.38 0 C116.48 0.91, 124.55 7.7, 123 21.63 M101.38 0 C116.7 1.15, 124.42 8.52, 123 21.63 M123 21.63 C124.14 31.83, 123.88 40.23, 123 64.88 M123 21.63 C123.9 36.71, 123.13 52.53, 123 64.88 M123 64.88 C123.07 80.37, 115.31 85.07, 101.38 86.5 M123 64.88 C120.75 78.19, 116.86 84.56, 101.38 86.5 M101.38 86.5 C75.66 85.38, 51.43 84.91, 21.63 86.5 M101.38 86.5 C71.5 86.23, 42.74 86.3, 21.63 86.5 M21.63 86.5 C7.8 87.78, -1.89 80.82, 0 64.88 M21.63 86.5 C8.82 84.21, -1.36 80.5, 0 64.88 M0 64.88 C-0.79 55.12, -1.17 40.97, 0 21.63 M0 64.88 C0.03 54.28, -0.45 42.84, 0 21.63 M0 21.63 C0.74 5.28, 7.19 0.82, 21.63 0 M0 21.63 C0.62 6.52, 5.45 -0.01, 21.63 0" stroke="#1e1e1e" stroke-width="2" fill="none"></path></g><g transform="translate(23.371978759765625 73.033203125) rotate(0 43.129974365234375 25)"><text x="43.129974365234375" y="0" font-family="Virgil, Segoe UI Emoji" font-size="20px" fill="#1e1e1e" text-anchor="middle" style="white-space: pre;" direction="ltr" dominant-baseline="text-before-edge">API </text><text x="43.129974365234375" y="25" font-family="Virgil, Segoe UI Emoji" font-size="20px" fill="#1e1e1e" text-anchor="middle" style="white-space: pre;" direction="ltr" dominant-baseline="text-before-edge">Gateway</text></g><g stroke-linecap="round" transform="translate(255.603515625 55.638671875) rotate(0 61.501953125 43.251953125)"><path d="M21.63 0 C43.83 -1.88, 64.24 1.72, 101.38 0 M21.63 0 C38.74 1.1, 55.94 1.07, 101.38 0 M101.38 0 C116.42 1.31, 122.75 8.55, 123 21.63 M101.38 0 C113.97 1.03, 124.22 8.14, 123 21.63 M123 21.63 C123.13 36.84, 124.68 54.97, 123 64.88 M123 21.63 C124.12 36.61, 123.71 50.48, 123 64.88 M123 64.88 C122.66 80.37, 117.02 85.24, 101.38 86.5 M123 64.88 C123.29 77.02, 117.08 85.79, 101.38 86.5 M101.38 86.5 C81.75 86.79, 59.24 87.32, 21.63 86.5 M101.38 86.5 C81.69 85.89, 63.67 86.43, 21.63 86.5 M21.63 86.5 C7.26 87.35, -0.7 78.3, 0 64.88 M21.63 86.5 C7.66 86.01, 0.34 79.32, 0 64.88 M0 64.88 C-1.03 49.96, 1.81 33.32, 0 21.63 M0 64.88 C-0.13 56.14, 0.56 46.8, 0 21.63 M0 21.63 C0.87 7.07, 5.88 -1.24, 21.63 0 M0 21.63 C0.1 5.74, 6.34 -0.5, 21.63 0" stroke="#1e1e1e" stroke-width="2" fill="none"></path></g><g transform="translate(274.4054946899414 73.890625) rotate(0 42.699974060058594 25)"><text x="42.699974060058594" y="0" font-family="Virgil, Segoe UI Emoji" font-size="20px" fill="#1e1e1e" text-anchor="middle" style="white-space: pre;" direction="ltr" dominant-baseline="text-before-edge">Load </text><text x="42.699974060058594" y="25" font-family="Virgil, Segoe UI Emoji" font-size="20px" fill="#1e1e1e" text-anchor="middle" style="white-space: pre;" direction="ltr" dominant-baseline="text-before-edge">Balancer</text></g><g stroke-linecap="round"><g transform="translate(136.671875 96.1953125) rotate(0 58.474609375 0)"><path d="M0.91 -0.87 C20.51 -0.87, 98.57 0.31, 118.07 0.31 M-0.07 1.29 C19.43 0.89, 98.09 -1.43, 117.71 -1.66" stroke="#1e1e1e" stroke-width="2" fill="none"></path></g><g transform="translate(136.671875 96.1953125) rotate(0 58.474609375 0)"><path d="M89.74 9.21 C97.7 7.2, 109.09 3.25, 117.71 -1.66 M89.74 9.21 C95.27 5.8, 102.3 4.72, 117.71 -1.66" stroke="#1e1e1e" stroke-width="2" fill="none"></path></g><g transform="translate(136.671875 96.1953125) rotate(0 58.474609375 0)"><path d="M89.3 -11.3 C97.46 -6.4, 109 -3.43, 117.71 -1.66 M89.3 -11.3 C94.77 -10.12, 101.9 -6.6, 117.71 -1.66" stroke="#1e1e1e" stroke-width="2" fill="none"></path></g></g><mask></mask><g stroke-linecap="round" transform="translate(509.96875 5) rotate(0 83.587890625 30)"><path d="M15 0 C49 -0.69, 80.52 -0.74, 152.18 0 M15 0 C44.87 0.13, 74.81 -1.38, 152.18 0 M152.18 0 C163.95 1.6, 167.3 3.75, 167.18 15 M152.18 0 C160.25 -0.19, 165.83 4.61, 167.18 15 M167.18 15 C166.41 21.83, 165.36 26.16, 167.18 45 M167.18 15 C167.17 25.48, 166.05 38.03, 167.18 45 M167.18 45 C168.61 56.17, 163.16 58.7, 152.18 60 M167.18 45 C168.75 55.03, 163.19 61.76, 152.18 60 M152.18 60 C110.89 59.96, 70.17 57.55, 15 60 M152.18 60 C101.75 60.7, 52.73 60.65, 15 60 M15 60 C4.45 58.69, 0.36 53.64, 0 45 M15 60 C5.6 58.41, -0.59 56.34, 0 45 M0 45 C-0.2 35.74, 1.06 30.64, 0 15 M0 45 C0.37 38.09, 0.38 31.41, 0 15 M0 15 C0.48 4.31, 3.55 -1.99, 15 0 M0 15 C-1.29 5.21, 4.58 -0.91, 15 0" stroke="#1e1e1e" stroke-width="2" fill="none"></path></g><g transform="translate(551.1466751098633 22.5) rotate(0 42.40996551513672 12.5)"><text x="42.40996551513672" y="0" font-family="Virgil, Segoe UI Emoji" font-size="20px" fill="#1e1e1e" text-anchor="middle" style="white-space: pre;" direction="ltr" dominant-baseline="text-before-edge">Server A</text></g><g stroke-linecap="round" transform="translate(514.17578125 81.115234375) rotate(0 79.447265625 23.599609375)"><path d="M11.8 0 C44.45 -1.08, 72.65 -2.88, 147.09 0 M11.8 0 C50.37 -0.16, 90.47 -0.1, 147.09 0 M147.09 0 C155.5 -1.7, 157.46 5.35, 158.89 11.8 M147.09 0 C153.01 -1.42, 159.47 2.44, 158.89 11.8 M158.89 11.8 C160.25 17.81, 157.77 23.22, 158.89 35.4 M158.89 11.8 C159.04 18.74, 158.08 26.28, 158.89 35.4 M158.89 35.4 C160.12 44.83, 153.78 48.46, 147.09 47.2 M158.89 35.4 C159.11 43.9, 153.47 47.94, 147.09 47.2 M147.09 47.2 C103.75 47.19, 61.66 47.35, 11.8 47.2 M147.09 47.2 C115.48 47.4, 84.82 47.8, 11.8 47.2 M11.8 47.2 C2.45 48.08, 1.19 41.95, 0 35.4 M11.8 47.2 C3.27 49.03, 0.64 43.53, 0 35.4 M0 35.4 C-0.8 26.17, -2.1 18.72, 0 11.8 M0 35.4 C0.79 28.24, 0.03 19.82, 0 11.8 M0 11.8 C1.87 2.15, 5.48 -0.77, 11.8 0 M0 11.8 C1.59 6.02, 4.06 -1.53, 11.8 0" stroke="#1e1e1e" stroke-width="2" fill="none"></path></g><g transform="translate(550.5030822753906 92.21484375) rotate(0 43.119964599609375 12.5)"><text x="43.119964599609375" y="0" font-family="Virgil, Segoe UI Emoji" font-size="20px" fill="#1e1e1e" text-anchor="middle" style="white-space: pre;" direction="ltr" dominant-baseline="text-before-edge">Server B</text></g><g stroke-linecap="round"><g transform="translate(389.765625 107.39314674193992) rotate(0 57.44921875000006 -37.81626276557783)"><path d="M-0.56 1.17 C18.77 -11.53, 96.4 -62.56, 115.64 -75.34 M1.34 0.74 C20.61 -12.42, 96.29 -64.83, 115.07 -77.3" stroke="#1e1e1e" stroke-width="2" fill="none"></path></g><g transform="translate(389.765625 107.39314674193992) rotate(0 57.44921875000006 -37.81626276557783)"><path d="M97.54 -52.96 C104.07 -58.26, 107.38 -66.16, 115.07 -77.3 M97.54 -52.96 C102.15 -60.57, 107.72 -68.52, 115.07 -77.3" stroke="#1e1e1e" stroke-width="2" fill="none"></path></g><g transform="translate(389.765625 107.39314674193992) rotate(0 57.44921875000006 -37.81626276557783)"><path d="M85.99 -69.93 C95.79 -70.57, 102.23 -73.86, 115.07 -77.3 M85.99 -69.93 C94.26 -72.22, 103.43 -74.89, 115.07 -77.3" stroke="#1e1e1e" stroke-width="2" fill="none"></path></g></g><mask></mask><g stroke-linecap="round"><g transform="translate(394.607421875 84.84150172279513) rotate(0 56.6337890625 15.302134055340744)"><path d="M0.97 -1.07 C19.97 4.08, 95.15 24.93, 113.97 30.35 M0.02 0.98 C18.93 6.36, 94.49 26.99, 113.39 31.75" stroke="#1e1e1e" stroke-width="2" fill="none"></path></g><g transform="translate(394.607421875 84.84150172279513) rotate(0 56.6337890625 15.302134055340744)"><path d="M83.51 34.47 C90.52 34.59, 100.66 33.61, 113.39 31.75 M83.51 34.47 C93.92 34.51, 104.75 32.31, 113.39 31.75" stroke="#1e1e1e" stroke-width="2" fill="none"></path></g><g transform="translate(394.607421875 84.84150172279513) rotate(0 56.6337890625 15.302134055340744)"><path d="M88.76 14.63 C94.13 20.63, 102.73 25.48, 113.39 31.75 M88.76 14.63 C97.4 21.98, 106.27 27.14, 113.39 31.75" stroke="#1e1e1e" stroke-width="2" fill="none"></path></g></g><mask></mask><g stroke-linecap="round"><g transform="translate(391.68359375 80.41101125812978) rotate(0 66.333984375 55.82557215810003)"><path d="M1 -1.19 C23.1 17.3, 111.73 92.41, 133.8 111.16 M0.06 0.81 C22 19.44, 111.29 93.83, 133.44 112.44" stroke="#1e1e1e" stroke-width="2" fill="none"></path></g><g transform="translate(391.68359375 80.41101125812978) rotate(0 66.333984375 55.82557215810003)"><path d="M105.24 102.23 C114.5 107.94, 126.88 111.31, 133.44 112.44 M105.24 102.23 C113.34 105.91, 120.96 108.8, 133.44 112.44" stroke="#1e1e1e" stroke-width="2" fill="none"></path></g><g transform="translate(391.68359375 80.41101125812978) rotate(0 66.333984375 55.82557215810003)"><path d="M118.4 86.49 C122.46 98.57, 129.6 108.21, 133.44 112.44 M118.4 86.49 C122.89 94.44, 126.92 101.62, 133.44 112.44" stroke="#1e1e1e" stroke-width="2" fill="none"></path></g></g><mask></mask><g stroke-linecap="round" transform="translate(530.201171875 170.783203125) rotate(0 79.447265625 23.599609375)"><path d="M11.8 0 C52.35 -2.34, 91.75 -0.97, 147.09 0 M11.8 0 C48.96 -0.53, 88.38 -0.42, 147.09 0 M147.09 0 C155.18 -1.77, 159.39 5.3, 158.89 11.8 M147.09 0 C154.33 0.89, 156.6 3.63, 158.89 11.8 M158.89 11.8 C157.34 18.3, 157.44 26.08, 158.89 35.4 M158.89 11.8 C158.25 16.4, 158.41 22.54, 158.89 35.4 M158.89 35.4 C157.18 44.18, 154.96 45.7, 147.09 47.2 M158.89 35.4 C156.99 45.06, 153.22 47.82, 147.09 47.2 M147.09 47.2 C98.75 50.36, 55.06 50.07, 11.8 47.2 M147.09 47.2 C104.29 45.46, 60.61 45.42, 11.8 47.2 M11.8 47.2 C5.36 48.54, 0.23 42.63, 0 35.4 M11.8 47.2 C3.01 45.22, 1.27 43.68, 0 35.4 M0 35.4 C-0.98 26.88, 0.64 20.35, 0 11.8 M0 35.4 C0.13 29.41, 0.36 24.68, 0 11.8 M0 11.8 C-0.35 3.07, 4.14 -1.51, 11.8 0 M0 11.8 C1.34 3.09, 4.3 0.19, 11.8 0" stroke="#1e1e1e" stroke-width="2" fill="none"></path></g><g transform="translate(568.7784729003906 181.8828125) rotate(0 40.869964599609375 12.5)"><text x="40.869964599609375" y="0" font-family="Virgil, Segoe UI Emoji" font-size="20px" fill="#1e1e1e" text-anchor="middle" style="white-space: pre;" direction="ltr" dominant-baseline="text-before-edge">Server c</text></g></svg>