<svg version="1.1" xmlns="http://www.w3.org/2000/svg" viewBox="0 0 833.40625 486.17578125" width="1666.8125" height="972.3515625">
  <!-- svg-source:excalidraw -->
  
  <defs>
    <style class="style-fonts">
      @font-face {
        font-family: "Virgil";
        src: url("../../../../../node_modules/%40excalidraw/excalidraw/dist/dist/excalidraw-assets/Virgil.json");
      }
      @font-face {
        font-family: "Cascadia";
        src: url("../../../../../node_modules/%40excalidraw/excalidraw/dist/dist/excalidraw-assets/Cascadia.json");
      }
      @font-face {
        font-family: "Assistant";
        src: url("../../../../../node_modules/%40excalidraw/excalidraw/dist/dist/excalidraw-assets/Assistant-Regular.json");
      }
    </style>
    
  </defs>
  <rect x="0" y="0" width="833.40625" height="486.17578125" fill="#ffffff"></rect><g stroke-linecap="round" transform="translate(114.9609375 104.29296875) rotate(0 104.3515625 188.44140625)"><path d="M32 0 C83.08 -0.24, 132.12 0.91, 176.7 0 M32 0 C85.15 0.34, 136.98 0.51, 176.7 0 M176.7 0 C199.37 -1.29, 209.57 11.22, 208.7 32 M176.7 0 C200.19 -1.98, 207.38 12.64, 208.7 32 M208.7 32 C207.11 147.58, 207.74 265.79, 208.7 344.88 M208.7 32 C207.4 157.31, 207.56 282.54, 208.7 344.88 M208.7 344.88 C207.76 367.81, 199.74 376.75, 176.7 376.88 M208.7 344.88 C209.02 367.09, 198.19 378.23, 176.7 376.88 M176.7 376.88 C126.19 376.05, 73.77 374.07, 32 376.88 M176.7 376.88 C128.34 378.07, 81.02 378.5, 32 376.88 M32 376.88 C9.73 375.18, -1.15 366.84, 0 344.88 M32 376.88 C11.57 376.7, -0.54 365.65, 0 344.88 M0 344.88 C1.07 264.66, 1.74 182.32, 0 32 M0 344.88 C-1.82 266.53, -1.04 187.41, 0 32 M0 32 C0.42 10.71, 10.46 0.05, 32 0 M0 32 C1.7 9.08, 10.41 1.81, 32 0" stroke="#1e1e1e" stroke-width="2" fill="none"></path></g><g stroke-linecap="round" transform="translate(619.703125 94.06640625) rotate(0 104.3515625 188.44140625)"><path d="M32 0 C86.04 1.31, 143.17 0.69, 176.7 0 M32 0 C79.65 -0.04, 127.55 1.04, 176.7 0 M176.7 0 C197.53 -0.94, 207.91 9.96, 208.7 32 M176.7 0 C198.86 -1.64, 207.21 12.45, 208.7 32 M208.7 32 C207.04 124.21, 207.73 214.95, 208.7 344.88 M208.7 32 C207.39 105.96, 207.91 180.86, 208.7 344.88 M208.7 344.88 C208.26 365.31, 199.48 378.77, 176.7 376.88 M208.7 344.88 C209.46 366.46, 195.78 376.47, 176.7 376.88 M176.7 376.88 C123.04 376.21, 72.59 377.15, 32 376.88 M176.7 376.88 C133.75 377.82, 89.41 377.79, 32 376.88 M32 376.88 C9.73 375.52, -0.82 364.91, 0 344.88 M32 376.88 C8.42 377.54, -1.98 367.52, 0 344.88 M0 344.88 C-0.54 246.52, -1.22 148.71, 0 32 M0 344.88 C0.01 240.21, -0.17 134.83, 0 32 M0 32 C0.53 9, 9.73 0.78, 32 0 M0 32 C-0.54 9.84, 12.93 0.37, 32 0" stroke="#1e1e1e" stroke-width="2" fill="none"></path></g><g stroke-linecap="round"><g transform="translate(407.6640625 215.98828125) rotate(0 67.19921875 44.30266664380173)"><path d="M-0.94 -0.36 C32.87 3.4, 197.81 -8.93, 203.79 22.63 C209.77 54.19, 80.53 209.28, 34.95 189 C-10.64 168.71, -52.51 -51.05, -69.75 -99.09 M0.77 -1.6 C34.34 2.28, 196.78 -8.35, 202.87 23.65 C208.96 55.65, 82.73 211.19, 37.3 190.4 C-8.13 169.62, -51.92 -52.31, -69.72 -101.05" stroke="#1e1e1e" stroke-width="2" fill="none"></path></g><g transform="translate(407.6640625 215.98828125) rotate(0 67.19921875 44.30266664380173)"><path d="M-52.28 -76.64 C-59.46 -85.85, -67.08 -96.86, -69.72 -101.05 M-52.28 -76.64 C-56.97 -83.34, -63.03 -91.62, -69.72 -101.05" stroke="#1e1e1e" stroke-width="2" fill="none"></path></g><g transform="translate(407.6640625 215.98828125) rotate(0 67.19921875 44.30266664380173)"><path d="M-72.06 -71.14 C-71.8 -82.27, -71.98 -95.34, -69.72 -101.05 M-72.06 -71.14 C-70.51 -79.76, -70.36 -89.76, -69.72 -101.05" stroke="#1e1e1e" stroke-width="2" fill="none"></path></g></g><mask></mask><g stroke-linecap="round" transform="translate(189.8046875 133.49609375) rotate(0 43.494140625 39.1796875)"><path d="M55 10 C63.91 18.72, 68.64 24.03, 75.99 30 M55 10 C61 15.86, 67.01 20.97, 75.99 30 M75.99 30 C87.03 41.83, 88.5 39.87, 75.99 50 M75.99 30 C87.91 40, 88.92 39.19, 75.99 50 M75.99 50 C66.65 54.55, 59.49 62.9, 55 68.36 M75.99 50 C67.42 56.94, 61.04 62.67, 55 68.36 M55 68.36 C43.4 76.89, 44.51 76.38, 33 68.36 M55 68.36 C46.3 80.16, 44.94 78.52, 33 68.36 M33 68.36 C24.74 61.15, 17.86 53.97, 11 50 M33 68.36 C23.89 60.67, 16.08 53.76, 11 50 M11 50 C0.05 40.33, -0.8 39.13, 11 30 M11 50 C0.22 40.86, 0.84 40.5, 11 30 M11 30 C19.67 24.15, 28.47 16.82, 33 10 M11 30 C18.13 23.58, 23.12 18.31, 33 10 M33 10 C45.33 -0.41, 44.05 -1.02, 55 10 M33 10 C44.94 -1.27, 46.04 1.4, 55 10" stroke="#1e1e1e" stroke-width="2" fill="none"></path></g><g stroke-linecap="round"><g transform="translate(287.35546875 171.265625) rotate(0 162.65234375 -10.046875)"><path d="M0.03 1.01 C54.44 -2.28, 272.24 -15.93, 326.48 -19.5 M-1.41 0.5 C52.94 -3.17, 271.78 -18.01, 326.14 -21.31" stroke="#1e1e1e" stroke-width="2" fill="none"></path></g><g transform="translate(287.35546875 171.265625) rotate(0 162.65234375 -10.046875)"><path d="M298.68 -9.25 C308.6 -10.93, 316.16 -16.27, 326.14 -21.31 M298.68 -9.25 C306.85 -11.63, 312.92 -14.95, 326.14 -21.31" stroke="#1e1e1e" stroke-width="2" fill="none"></path></g><g transform="translate(287.35546875 171.265625) rotate(0 162.65234375 -10.046875)"><path d="M297.35 -29.73 C307.71 -25.25, 315.67 -24.43, 326.14 -21.31 M297.35 -29.73 C305.78 -26.57, 312.21 -24.35, 326.14 -21.31" stroke="#1e1e1e" stroke-width="2" fill="none"></path></g></g><mask></mask><g stroke-linecap="round" transform="translate(5 5) rotate(0 55.255859375 29.759765625)"><path d="M14.88 0 C42.46 1.09, 72.21 -0.57, 95.63 0 M14.88 0 C38.43 1.27, 63.21 0.53, 95.63 0 M95.63 0 C104.61 -1.59, 111.42 4.66, 110.51 14.88 M95.63 0 C105.56 1.09, 111.39 5.14, 110.51 14.88 M110.51 14.88 C109.74 24.27, 110.17 34.01, 110.51 44.64 M110.51 14.88 C110.2 25.48, 110.41 34.62, 110.51 44.64 M110.51 44.64 C110.87 56.14, 103.74 59.41, 95.63 59.52 M110.51 44.64 C110.05 53.21, 107.26 60.88, 95.63 59.52 M95.63 59.52 C77.52 61.12, 61.39 57.82, 14.88 59.52 M95.63 59.52 C74.81 60.8, 52.88 60.63, 14.88 59.52 M14.88 59.52 C6.73 60.51, -1.69 53.45, 0 44.64 M14.88 59.52 C3.06 60.59, 1.06 54.52, 0 44.64 M0 44.64 C0.35 31.99, 1.3 22.77, 0 14.88 M0 44.64 C-0.23 36.82, -0.1 28.17, 0 14.88 M0 14.88 C-1.69 6.25, 5.36 -1.31, 14.88 0 M0 14.88 C0.05 3.85, 2.78 0.61, 14.88 0" stroke="#f08c00" stroke-width="2" fill="none"></path></g></svg>